<svg id="svg" version="1.1" xmlns="http://www.w3.org/2000/svg" xmlns:xlink="http://www.w3.org/1999/xlink" width="400" height="401.41342756183747" viewBox="0, 0, 400,401.41342756183747"><g id="svgg"><path id="path0" d="M201.542 96.773 C 201.464 97.006,177.598 121.002,148.507 150.098 L 95.614 203.000 97.807 204.992 C 99.013 206.087,100.000 207.212,100.000 207.492 C 100.000 207.771,100.264 208.000,100.586 208.000 C 100.908 208.000,101.358 208.348,101.586 208.773 C 101.813 209.198,102.340 209.654,102.756 209.786 C 103.173 209.918,103.606 210.378,103.718 210.808 C 103.831 211.238,104.390 211.768,104.961 211.985 C 105.533 212.202,106.000 212.623,106.000 212.920 C 106.000 213.576,107.751 215.289,108.130 215.004 C 108.278 214.892,108.313 214.917,108.207 215.060 C 108.101 215.202,108.606 215.877,109.330 216.560 C 110.053 217.242,110.680 217.935,110.722 218.100 C 110.765 218.265,110.886 218.405,110.990 218.410 C 111.095 218.416,111.662 218.866,112.249 219.410 C 112.836 219.955,113.471 220.400,113.658 220.400 C 113.846 220.400,114.000 220.591,114.000 220.824 C 114.000 221.057,113.775 221.138,113.500 221.005 C 113.225 220.872,113.450 221.086,114.000 221.481 C 114.550 221.877,115.519 222.740,116.153 223.400 C 116.787 224.060,117.203 224.409,117.076 224.176 C 116.950 223.943,140.681 199.918,169.812 170.788 L 222.778 117.823 220.789 115.876 C 219.695 114.805,218.799 113.810,218.799 113.664 C 218.798 113.519,218.259 113.040,217.600 112.600 C 216.941 112.160,216.402 111.593,216.401 111.340 C 216.401 111.086,215.759 110.501,214.977 110.039 C 214.194 109.577,213.664 109.020,213.800 108.800 C 213.936 108.580,213.852 108.400,213.612 108.400 C 213.169 108.400,202.008 97.356,202.046 96.954 C 202.088 96.509,201.679 96.363,201.542 96.773 M247.195 175.667 C 246.732 176.180,245.303 177.950,244.021 179.600 C 240.754 183.804,179.128 245.144,176.503 246.804 C 175.350 247.534,174.116 248.573,173.762 249.115 C 173.407 249.656,173.281 249.997,173.482 249.873 C 173.683 249.749,185.446 261.253,199.623 275.437 C 213.801 289.622,225.760 301.553,226.200 301.952 C 226.640 302.351,229.313 305.045,232.141 307.939 C 234.969 310.832,237.432 313.200,237.614 313.200 C 237.797 313.200,238.060 313.560,238.200 314.000 C 238.340 314.440,238.587 314.800,238.749 314.800 C 238.912 314.800,242.313 318.085,246.308 322.100 C 250.303 326.115,255.022 330.840,256.795 332.600 C 258.568 334.360,261.230 337.043,262.709 338.562 C 266.357 342.307,270.589 346.520,276.105 351.900 C 278.643 354.375,280.677 356.400,280.626 356.400 C 280.575 356.400,282.951 358.785,285.905 361.700 C 288.859 364.615,292.564 368.330,294.138 369.956 C 295.712 371.581,298.482 374.371,300.292 376.156 C 302.103 377.940,306.597 382.415,310.279 386.100 C 313.961 389.785,317.176 392.800,317.425 392.800 C 317.673 392.800,318.163 393.115,318.513 393.500 C 318.863 393.885,319.836 394.558,320.675 394.996 C 321.514 395.434,322.338 396.008,322.507 396.273 C 322.675 396.537,323.620 396.874,324.607 397.022 C 325.593 397.170,326.400 397.450,326.400 397.645 C 326.400 397.840,326.876 398.000,327.457 398.000 C 328.038 398.000,329.776 398.376,331.318 398.835 C 334.162 399.682,339.885 399.770,343.000 399.015 C 343.660 398.855,344.420 398.686,344.688 398.640 C 344.957 398.594,345.302 398.431,345.455 398.278 C 345.608 398.125,346.108 397.997,346.567 397.994 C 347.704 397.986,350.864 396.860,351.600 396.200 C 351.930 395.904,352.695 395.539,353.300 395.388 C 353.905 395.237,354.400 394.965,354.400 394.784 C 354.400 394.602,354.715 394.350,355.100 394.223 C 356.271 393.837,365.045 385.663,367.300 382.858 C 367.905 382.106,368.400 381.583,368.400 381.697 C 368.400 381.911,373.938 376.440,378.262 371.954 C 379.616 370.549,381.461 368.710,382.362 367.866 C 383.263 367.023,384.000 366.168,384.000 365.966 C 384.000 365.765,384.173 365.600,384.385 365.600 C 384.789 365.600,386.721 363.727,389.400 360.738 C 392.180 357.635,392.841 356.765,393.832 354.901 C 394.364 353.902,394.951 352.885,395.138 352.642 C 395.610 352.029,396.686 348.526,396.995 346.600 C 397.136 345.720,397.522 344.241,397.853 343.314 C 398.600 341.224,398.418 334.255,397.570 332.400 C 397.471 332.184,397.470 332.179,397.043 329.800 C 396.885 328.920,396.609 327.924,396.429 327.587 C 396.249 327.250,395.975 326.395,395.819 325.687 C 395.664 324.979,395.413 324.400,395.263 324.400 C 395.112 324.400,394.541 323.456,393.994 322.301 C 392.712 319.595,393.190 320.152,384.985 311.800 C 381.094 307.840,377.522 304.150,377.047 303.600 C 376.572 303.050,375.506 302.015,374.678 301.300 C 373.850 300.585,373.264 300.000,373.377 300.000 C 373.490 300.000,372.750 299.235,371.732 298.300 C 369.584 296.327,365.600 292.349,365.600 292.178 C 365.600 292.114,365.060 291.522,364.400 290.862 C 363.740 290.202,363.200 289.744,363.200 289.845 C 363.200 289.945,362.673 289.428,362.029 288.694 C 359.819 286.177,357.600 283.901,357.600 284.152 C 357.600 284.290,356.929 283.659,356.108 282.751 C 353.340 279.687,343.971 270.562,343.785 270.748 C 343.683 270.850,343.600 270.757,343.600 270.542 C 343.600 270.327,337.921 264.492,330.979 257.575 C 324.038 250.659,316.984 243.605,315.305 241.900 C 313.626 240.195,311.968 238.800,311.621 238.800 C 310.774 238.800,269.200 197.165,269.200 196.317 C 269.200 195.748,264.539 190.790,262.083 188.745 C 261.651 188.385,261.228 187.935,261.145 187.745 C 261.061 187.555,259.352 185.825,257.348 183.900 C 255.343 181.975,253.730 180.400,253.762 180.400 C 253.901 180.400,249.330 175.752,248.715 175.267 C 248.133 174.809,247.920 174.865,247.195 175.667 " stroke="none" fill="#8b9ba3" fill-rule="evenodd"></path><path id="path1" d="M98.537 28.872 C 96.814 29.705,96.037 38.729,97.171 44.740 C 98.350 50.994,102.046 59.635,105.922 65.200 C 106.918 66.630,108.108 68.337,108.567 68.993 C 117.358 81.575,135.106 96.174,147.000 100.607 C 148.320 101.099,149.745 101.645,150.166 101.819 C 150.663 102.025,150.841 101.990,150.674 101.720 C 150.533 101.491,149.288 100.888,147.908 100.379 C 129.424 93.567,106.449 70.384,99.667 51.702 C 96.486 42.940,96.440 29.200,99.592 29.200 C 100.230 29.200,100.864 29.020,101.000 28.800 C 101.321 28.281,99.657 28.330,98.537 28.872 M105.656 29.468 C 105.947 29.818,105.880 30.808,105.436 32.763 C 101.723 49.084,119.407 75.822,142.800 89.258 C 147.798 92.128,154.648 94.800,157.010 94.800 C 158.340 94.800,168.913 83.885,168.921 82.504 C 168.932 80.667,168.370 78.280,167.578 76.800 C 167.166 76.030,166.551 74.410,166.212 73.200 C 165.874 71.990,164.710 69.470,163.627 67.600 C 162.543 65.730,161.163 63.210,160.559 62.000 C 159.955 60.790,159.132 59.565,158.730 59.277 C 158.329 58.990,158.000 58.557,158.000 58.315 C 158.000 57.100,140.798 40.834,138.863 40.220 C 138.389 40.069,138.000 39.796,138.000 39.612 C 138.000 39.429,137.462 39.091,136.805 38.862 C 136.147 38.632,134.842 37.919,133.905 37.277 C 132.483 36.304,130.978 35.581,130.000 35.403 C 129.890 35.383,129.197 35.045,128.461 34.653 C 127.724 34.260,126.824 33.873,126.461 33.793 C 126.097 33.712,124.866 33.295,123.724 32.866 C 122.582 32.437,121.572 32.161,121.481 32.253 C 121.389 32.344,121.086 32.145,120.808 31.810 C 120.530 31.474,120.099 31.203,119.851 31.206 C 119.603 31.209,119.670 31.387,120.000 31.600 C 120.330 31.813,120.397 31.991,120.149 31.994 C 119.901 31.997,119.476 31.732,119.204 31.404 C 118.932 31.077,118.575 30.892,118.412 30.993 C 118.248 31.094,117.503 30.986,116.757 30.754 C 115.438 30.343,113.642 30.030,111.599 29.855 C 111.048 29.808,110.382 29.636,110.117 29.473 C 109.853 29.309,109.179 29.291,108.618 29.431 C 107.903 29.611,107.598 29.525,107.594 29.143 C 107.589 28.723,107.500 28.736,107.200 29.200 C 106.968 29.558,106.810 29.609,106.806 29.325 C 106.803 29.064,106.449 28.876,106.020 28.908 C 105.444 28.952,105.349 29.098,105.656 29.468 M33.800 97.028 C 33.360 97.131,31.965 97.417,30.700 97.662 C 29.435 97.908,28.400 98.265,28.400 98.455 C 28.400 98.901,28.365 98.905,31.080 98.188 C 38.206 96.309,48.596 98.072,57.869 102.734 C 74.732 111.212,95.564 133.728,100.224 148.509 C 100.663 149.902,101.172 150.800,101.522 150.800 C 101.927 150.800,101.981 150.652,101.702 150.300 C 101.485 150.025,100.926 148.769,100.462 147.509 C 97.392 139.178,90.841 129.667,81.837 120.466 C 73.615 112.064,65.999 106.201,58.400 102.424 C 49.616 98.057,39.171 95.766,33.800 97.028 M28.492 104.600 C 28.446 105.150,28.587 105.600,28.804 105.600 C 29.022 105.600,29.200 105.150,29.200 104.600 C 29.200 104.050,29.059 103.600,28.887 103.600 C 28.715 103.600,28.537 104.050,28.492 104.600 M31.855 105.806 C 30.785 106.100,29.680 106.252,29.400 106.145 C 28.809 105.918,28.861 107.653,29.586 112.400 C 29.838 114.050,30.130 116.019,30.235 116.775 C 30.340 117.531,30.622 118.386,30.862 118.675 C 31.102 118.964,31.181 119.200,31.039 119.200 C 30.896 119.200,31.059 119.740,31.400 120.400 C 31.741 121.060,31.935 121.600,31.831 121.600 C 31.499 121.600,32.513 124.188,32.966 124.494 C 33.260 124.693,33.236 124.790,32.891 124.794 C 32.517 124.798,32.555 125.065,33.037 125.800 C 33.397 126.350,33.577 126.800,33.436 126.800 C 33.050 126.800,34.257 128.983,34.969 129.574 C 35.311 129.858,35.490 130.255,35.365 130.456 C 35.141 130.819,36.684 134.416,37.229 134.800 C 37.385 134.910,37.904 135.753,38.382 136.673 C 38.861 137.593,39.509 138.558,39.822 138.818 C 40.135 139.078,40.305 139.430,40.199 139.601 C 40.094 139.772,40.726 140.651,41.604 141.556 C 42.482 142.461,43.200 143.357,43.200 143.548 C 43.200 144.726,59.041 159.679,60.204 159.598 C 60.320 159.590,60.806 159.947,61.283 160.392 C 62.074 161.129,62.565 161.347,63.247 161.265 C 63.383 161.249,63.909 161.677,64.417 162.218 C 64.924 162.758,65.465 163.200,65.619 163.200 C 65.773 163.200,66.776 163.597,67.849 164.082 C 68.922 164.567,69.935 164.927,70.100 164.882 C 70.265 164.837,70.400 164.945,70.400 165.123 C 70.400 165.380,73.125 166.818,74.000 167.022 C 74.110 167.048,74.470 167.186,74.800 167.330 C 75.130 167.473,75.760 167.656,76.200 167.735 C 76.640 167.815,77.270 167.983,77.600 168.110 C 78.980 168.638,81.302 169.282,82.172 169.377 C 82.904 169.457,84.374 168.203,88.968 163.578 L 94.831 157.677 94.358 155.739 C 93.146 150.773,88.685 141.572,85.519 137.507 C 67.176 113.958,46.545 101.771,31.855 105.806 " stroke="none" fill="#a4d48c" fill-rule="evenodd"></path><path id="path2" d="M93.600 29.026 C 91.730 29.319,89.390 29.657,88.400 29.776 C 86.644 29.987,86.087 30.076,83.200 30.607 C 79.978 31.200,79.600 31.306,79.600 31.610 C 79.600 31.786,78.835 32.056,77.900 32.210 C 76.965 32.364,76.020 32.628,75.800 32.796 C 75.580 32.964,74.950 33.235,74.400 33.398 C 73.118 33.776,67.569 36.384,66.860 36.941 C 66.562 37.174,66.052 37.404,65.725 37.452 C 65.397 37.500,64.816 37.823,64.433 38.170 C 64.050 38.516,63.443 38.800,63.083 38.800 C 62.723 38.800,62.235 39.160,62.000 39.600 C 61.765 40.040,61.252 40.400,60.861 40.400 C 60.470 40.400,59.632 40.940,59.000 41.600 C 58.368 42.260,57.698 42.800,57.511 42.800 C 57.084 42.800,56.504 43.341,49.585 50.185 C 43.931 55.779,40.000 60.335,40.000 61.295 C 40.000 61.577,39.640 62.032,39.200 62.307 C 38.760 62.582,38.400 63.061,38.400 63.371 C 38.400 64.156,37.147 66.451,36.274 67.263 C 35.874 67.635,35.588 67.998,35.638 68.070 C 35.806 68.312,34.715 71.393,34.135 72.318 C 33.412 73.468,30.405 82.584,30.214 84.200 C 30.137 84.860,29.864 86.390,29.609 87.600 C 29.353 88.810,29.087 90.430,29.018 91.200 C 28.948 91.970,28.760 93.840,28.600 95.355 L 28.308 98.111 29.454 97.867 C 33.523 97.004,36.632 96.728,40.000 96.934 C 50.661 97.585,62.327 103.111,74.000 113.040 C 86.146 123.371,96.143 136.372,100.408 147.381 C 101.000 148.910,101.646 150.215,101.843 150.281 C 102.040 150.347,113.067 139.526,126.348 126.235 L 150.496 102.070 149.268 101.435 C 148.592 101.086,147.796 100.800,147.498 100.800 C 146.406 100.800,137.589 96.053,133.750 93.398 C 124.938 87.304,113.860 76.568,108.567 68.993 C 108.108 68.337,106.920 66.630,105.926 65.200 C 99.329 55.712,95.585 43.192,96.794 34.662 C 97.048 32.868,97.357 30.725,97.481 29.900 C 97.604 29.075,97.547 28.421,97.353 28.446 C 97.159 28.471,95.470 28.732,93.600 29.026 " stroke="none" fill="#74b454" fill-rule="evenodd"></path><path id="path3" d="M174.936 82.214 C 173.871 82.755,172.802 83.197,172.559 83.198 C 172.317 83.199,170.077 85.180,167.582 87.600 C 165.087 90.020,162.900 92.000,162.722 92.000 C 162.545 92.000,162.400 92.158,162.400 92.351 C 162.400 92.778,145.671 109.600,145.246 109.600 C 144.819 109.600,143.200 111.521,143.200 112.027 C 143.200 112.258,143.064 112.363,142.897 112.260 C 142.731 112.157,141.696 113.061,140.597 114.268 C 139.499 115.475,135.588 119.481,131.906 123.171 C 128.225 126.860,125.330 129.996,125.473 130.139 C 125.616 130.283,125.517 130.400,125.252 130.400 C 124.987 130.400,122.245 132.920,119.158 136.000 C 116.071 139.080,113.422 141.614,113.272 141.630 C 113.123 141.647,112.100 142.630,111.000 143.815 C 109.900 144.999,106.075 148.915,102.500 152.517 C 98.925 156.118,96.000 159.275,96.000 159.532 C 96.000 159.790,95.792 160.000,95.538 160.000 C 95.284 160.000,92.836 162.250,90.098 165.000 C 87.360 167.750,85.235 170.000,85.376 170.000 C 85.516 170.000,85.399 170.251,85.116 170.558 C 84.832 170.865,84.497 171.054,84.371 170.979 C 84.033 170.775,83.010 172.078,82.368 173.528 C 82.058 174.228,81.697 174.800,81.566 174.800 C 81.066 174.800,80.269 178.306,80.201 180.800 C 80.136 183.204,81.154 187.512,81.666 187.000 C 81.779 186.888,82.110 187.520,82.402 188.405 C 82.694 189.290,83.893 191.046,85.067 192.307 C 89.597 197.172,95.375 202.797,95.778 202.734 C 97.294 202.498,201.761 96.733,201.024 96.181 C 200.596 95.861,200.370 95.600,200.520 95.600 C 200.670 95.600,200.228 95.060,199.537 94.400 C 198.846 93.740,198.117 93.200,197.917 93.200 C 197.717 93.200,197.644 93.053,197.755 92.873 C 197.866 92.693,197.583 92.288,197.125 91.973 C 196.191 91.330,195.946 91.073,194.750 89.479 C 194.287 88.862,193.810 88.456,193.690 88.577 C 193.569 88.697,193.062 88.193,192.561 87.457 C 192.061 86.721,191.094 85.888,190.413 85.605 C 189.732 85.323,189.264 85.003,189.374 84.893 C 189.681 84.586,187.757 83.200,187.023 83.200 C 186.665 83.200,185.936 82.914,185.404 82.566 C 184.871 82.217,184.263 82.038,184.052 82.168 C 183.841 82.298,183.593 82.179,183.501 81.902 C 183.161 80.881,177.132 81.100,174.936 82.214 M204.400 99.555 C 204.400 99.995,205.559 100.974,205.798 100.736 C 205.896 100.638,205.621 100.254,205.188 99.883 C 204.755 99.511,204.400 99.364,204.400 99.555 M210.268 105.400 C 211.167 106.665,213.185 108.550,213.402 108.330 C 213.473 108.258,212.604 107.300,211.472 106.200 C 210.171 104.935,209.728 104.641,210.268 105.400 M213.774 109.158 C 213.923 109.399,214.416 109.795,214.871 110.038 C 215.462 110.354,215.620 110.356,215.426 110.042 C 215.277 109.801,214.784 109.405,214.329 109.162 C 213.738 108.846,213.580 108.844,213.774 109.158 M169.617 170.983 L 116.635 223.966 127.418 234.780 C 133.348 240.727,138.425 245.595,138.700 245.597 C 138.975 245.599,139.200 245.780,139.200 246.000 C 139.200 246.220,139.427 246.400,139.704 246.400 C 139.981 246.400,140.405 246.717,140.647 247.104 C 140.889 247.491,142.147 248.346,143.443 249.004 C 144.739 249.662,145.932 250.380,146.094 250.600 C 146.256 250.820,146.391 250.843,146.394 250.651 C 146.397 250.459,146.698 250.549,147.061 250.851 C 147.425 251.153,148.039 251.346,148.426 251.281 C 148.813 251.215,149.246 251.350,149.388 251.581 C 149.531 251.811,150.137 252.000,150.735 252.000 C 151.333 252.000,152.230 252.286,152.730 252.636 C 153.229 252.985,153.854 253.192,154.119 253.096 C 154.383 252.999,155.646 253.039,156.924 253.184 C 158.202 253.329,159.313 253.341,159.393 253.211 C 159.473 253.081,160.850 253.017,162.453 253.067 C 164.105 253.120,165.594 252.971,165.891 252.725 C 166.179 252.486,167.176 252.131,168.107 251.937 C 169.038 251.743,169.980 251.523,170.200 251.447 C 172.377 250.696,173.165 250.213,173.630 249.344 C 173.929 248.785,175.170 247.683,176.387 246.896 C 177.727 246.029,191.049 233.060,210.145 214.032 C 237.645 186.630,243.823 180.218,246.828 175.957 C 247.173 175.467,247.758 175.067,248.128 175.067 C 248.498 175.067,248.814 174.872,248.831 174.633 C 248.922 173.346,249.215 172.623,249.775 172.310 C 250.121 172.116,250.400 171.434,250.400 170.780 C 250.400 170.131,250.548 169.600,250.728 169.600 C 251.189 169.600,252.069 163.631,251.804 162.300 C 251.679 161.676,251.761 161.200,251.992 161.200 C 252.216 161.200,252.400 160.829,252.400 160.376 C 252.400 159.923,252.265 159.636,252.100 159.738 C 251.935 159.841,251.775 158.906,251.745 157.662 C 251.676 154.844,251.216 151.470,250.865 151.202 C 250.719 151.091,250.538 150.550,250.463 150.000 C 250.387 149.450,250.044 148.685,249.701 148.300 C 249.357 147.915,249.239 147.597,249.438 147.594 C 249.637 147.591,249.571 147.442,249.291 147.264 C 249.010 147.087,248.705 146.544,248.611 146.059 C 248.368 144.794,246.501 142.053,243.715 138.870 C 240.606 135.318,238.898 133.635,238.653 133.881 C 238.514 134.020,238.400 133.930,238.400 133.682 C 238.400 133.093,230.920 125.613,230.626 125.908 C 230.502 126.032,230.400 125.920,230.400 125.660 C 230.400 125.170,223.353 118.000,222.871 118.000 C 222.721 118.000,198.757 141.842,169.617 170.983 M281.200 186.755 C 281.200 186.950,280.390 187.231,279.400 187.379 C 278.410 187.528,277.600 187.813,277.600 188.014 C 277.600 188.215,277.015 188.680,276.300 189.048 C 275.206 189.611,273.016 191.478,271.400 193.225 C 271.180 193.463,270.595 194.071,270.100 194.575 C 268.470 196.235,268.569 196.351,290.095 217.891 C 311.413 239.224,313.200 240.789,313.200 238.133 C 313.200 237.767,313.318 237.585,313.463 237.730 C 313.825 238.092,314.844 237.195,314.572 236.755 C 314.451 236.560,314.543 236.400,314.774 236.400 C 315.546 236.400,319.117 232.574,319.742 231.076 C 320.082 230.264,320.569 229.600,320.826 229.600 C 321.083 229.600,321.210 229.280,321.107 228.888 C 321.005 228.497,321.164 227.950,321.461 227.672 C 322.636 226.574,321.867 218.129,320.511 217.259 C 320.289 217.117,319.972 216.550,319.805 216.000 C 319.303 214.343,312.042 206.179,311.455 206.612 C 311.315 206.715,311.290 206.680,311.401 206.532 C 311.685 206.154,310.385 204.800,309.738 204.800 C 309.442 204.800,309.200 204.607,309.200 204.371 C 309.200 203.889,308.012 202.600,307.567 202.600 C 307.262 202.600,306.294 201.568,304.044 198.842 C 303.298 197.939,302.437 197.200,302.131 197.200 C 301.825 197.200,301.463 196.885,301.327 196.500 C 300.956 195.454,299.941 194.389,299.547 194.633 C 299.356 194.751,299.200 194.660,299.200 194.431 C 299.200 193.859,296.574 191.200,296.010 191.200 C 295.758 191.200,295.655 191.035,295.779 190.834 C 295.903 190.633,295.329 190.065,294.502 189.573 C 293.676 189.080,292.820 188.480,292.600 188.239 C 291.330 186.846,281.200 185.527,281.200 186.755 M102.492 210.075 C 102.691 210.673,103.600 211.002,103.600 210.476 C 103.600 210.261,103.315 209.976,102.967 209.843 C 102.577 209.693,102.394 209.782,102.492 210.075 M105.043 212.567 C 105.176 212.915,105.461 213.200,105.676 213.200 C 106.202 213.200,105.873 212.291,105.275 212.092 C 104.982 211.994,104.893 212.177,105.043 212.567 M111.200 218.764 C 111.200 219.293,113.655 221.278,113.947 220.986 C 114.082 220.851,113.860 220.553,113.452 220.325 C 113.044 220.097,112.370 219.570,111.955 219.155 C 111.540 218.740,111.200 218.564,111.200 218.764 M331.600 258.200 C 332.346 258.970,333.047 259.600,333.157 259.600 C 333.267 259.600,332.746 258.970,332.000 258.200 C 331.254 257.430,330.553 256.800,330.443 256.800 C 330.333 256.800,330.854 257.430,331.600 258.200 " stroke="none" fill="#64747c" fill-rule="evenodd"></path><path id="path4" d="M98.096 29.100 C 98.143 29.485,97.937 31.150,97.637 32.800 C 94.295 51.210,110.943 77.861,135.978 94.179 C 141.887 98.030,152.399 102.816,151.400 101.200 C 151.264 100.980,151.305 100.800,151.490 100.800 C 151.676 100.800,153.135 99.508,154.733 97.929 L 157.639 95.058 154.807 94.322 C 129.080 87.640,100.778 52.503,105.386 32.966 C 106.257 29.271,106.146 28.873,104.294 29.053 C 103.329 29.147,102.844 29.052,102.999 28.801 C 103.140 28.574,102.814 28.400,102.247 28.400 C 101.697 28.400,101.136 28.580,101.000 28.800 C 100.864 29.020,100.178 29.197,99.476 29.194 C 98.505 29.189,98.343 29.095,98.800 28.800 C 99.314 28.468,99.300 28.411,98.705 28.406 C 98.275 28.402,98.042 28.667,98.096 29.100 M34.600 97.652 C 30.678 98.005,28.271 98.763,28.852 99.462 C 29.097 99.758,29.130 100.000,28.924 100.000 C 28.718 100.000,28.550 100.810,28.550 101.800 C 28.550 102.790,28.696 103.600,28.875 103.600 C 29.413 103.600,29.240 105.598,28.700 105.625 C 28.425 105.639,28.588 105.807,29.063 105.999 C 29.614 106.221,30.700 106.141,32.063 105.778 C 46.747 101.870,67.229 114.027,85.519 137.507 C 88.682 141.567,93.128 150.783,94.423 155.960 L 94.863 157.720 98.222 154.378 C 100.070 152.540,101.441 150.938,101.269 150.818 C 101.096 150.698,100.543 149.430,100.039 148.000 C 94.636 132.679,74.578 111.135,57.918 102.759 C 49.623 98.588,42.217 96.966,34.600 97.652 " stroke="none" fill="#fafbf9" fill-rule="evenodd"></path></g></svg>